<?xml version="1.0" encoding="UTF-8" standalone="no"?>
<!-- Created with Inkscape (http://www.inkscape.org/) -->

<svg
   xmlns:dc="http://purl.org/dc/elements/1.1/"
   xmlns:cc="http://creativecommons.org/ns#"
   xmlns:rdf="http://www.w3.org/1999/02/22-rdf-syntax-ns#"
   xmlns:svg="http://www.w3.org/2000/svg"
   xmlns="http://www.w3.org/2000/svg"
   xmlns:sodipodi="http://sodipodi.sourceforge.net/DTD/sodipodi-0.dtd"
   xmlns:inkscape="http://www.inkscape.org/namespaces/inkscape"
   width="341"
   height="392.43765"
   id="svg7173"
   version="1.1"
   inkscape:version="0.48.5 r10040"
   sodipodi:docname="christmas_tree.svg">
  <defs
     id="defs7175" />
  <sodipodi:namedview
     id="base"
     pagecolor="#ffffff"
     bordercolor="#666666"
     borderopacity="1.0"
     inkscape:pageopacity="0.0"
     inkscape:pageshadow="2"
     inkscape:zoom="0.35"
     inkscape:cx="228.3571"
     inkscape:cy="61.933119"
     inkscape:document-units="px"
     inkscape:current-layer="layer1"
     showgrid="false"
     inkscape:window-width="1600"
     inkscape:window-height="873"
     inkscape:window-x="0"
     inkscape:window-y="27"
     inkscape:window-maximized="0"
     borderlayer="false"
     fit-margin-top="0"
     fit-margin-left="0"
     fit-margin-right="0"
     fit-margin-bottom="0" />
  <metadata
     id="metadata7178">
    <rdf:RDF>
      <cc:Work
         rdf:about="">
        <dc:format>image/svg+xml</dc:format>
        <dc:type
           rdf:resource="http://purl.org/dc/dcmitype/StillImage" />
        <dc:title></dc:title>
      </cc:Work>
    </rdf:RDF>
  </metadata>
  <g
     inkscape:label="Layer 1"
     inkscape:groupmode="layer"
     id="layer1"
     transform="translate(-146.6429,-201.85766)">
    <g
       transform="translate(2739.9322,978.84799)"
       id="g5967">
      <path
         inkscape:connector-curvature="0"
         d="m -2398.3518,-760.76719 c 0.041,0.003 0.091,0.0105 0.125,0.0312 0.5383,0.33268 1.8748,2.35571 2.9687,4.5 2.2619,4.43371 4.5225,5.96875 8.8438,5.96875 4.5454,0 4.7636,1.79447 0.6875,5.96875 -3.6757,3.76428 -3.6979,3.78346 -2.7188,9.15625 0.54,2.96237 0.8217,5.58173 0.5938,5.8125 -0.228,0.23076 -2.704,-0.64257 -5.4688,-1.9375 l -5,-2.375 -4.5,2.1875 c -2.4733,1.20166 -4.6438,2.1875 -4.8125,2.1875 -1.1329,0 -1.4166,-1.84167 -0.9687,-6.34375 0.4876,-4.90154 0.3281,-5.31232 -3.0625,-8.5625 -3.8312,-3.67246 -3.5401,-6.06625 0.75,-6.09375 4.8341,-0.031 6.7693,-1.32246 9.2187,-6.15625 1.2823,-2.53051 2.7239,-4.39525 3.3438,-4.34375 z m -0.25,-16.21875 c -0.4886,0.16286 -3.201,4.76907 -6.0313,10.25 l -5.1562,9.96875 -10.7188,1.59375 c -5.9117,0.87011 -11.0671,1.87963 -11.4375,2.25 -0.3703,0.37037 3.0054,4.42643 7.5,9.03125 4.4947,4.60481 8.1653,8.5453 8.1563,8.75 -0.01,0.20471 -0.8615,5.11025 -1.9063,10.875 -1.0447,5.76476 -1.6793,10.83946 -1.4062,11.28125 0.273,0.44179 4.8026,-1.48096 10.0625,-4.25 5.2598,-2.76904 10.2728,-5.0174 11.1562,-5 0.8835,0.0174 5.8095,2.2343 10.9375,4.90625 6.4851,3.37902 9.4781,4.46518 9.8125,3.59375 0.2645,-0.68907 -0.2669,-5.43666 -1.1562,-10.5625 -0.8894,-5.12584 -1.3636,-10.30045 -1.0625,-11.5 0.301,-1.19955 3.9597,-5.24086 8.125,-8.96875 4.6144,-4.1299 7.2173,-7.12646 6.6562,-7.6875 -0.5064,-0.50643 -4.9244,-1.60117 -9.8125,-2.40625 -4.888,-0.80509 -9.7947,-1.63569 -10.9062,-1.875 -1.3999,-0.30138 -3.5437,-3.53873 -6.9688,-10.5 -2.7196,-5.52742 -5.3551,-9.91286 -5.8437,-9.75 z"
         style="fill:#c90000;fill-opacity:1"
         id="path5961" />
      <path
         inkscape:connector-curvature="0"
         d="m -2416.2581,-706.26719 c -0.3884,0 -1.469,1.88109 -2.375,4.1875 -1.578,4.01725 -1.5451,4.40227 0.4688,8.5625 2.8557,5.89903 10.9576,14.54716 18.3125,19.56249 4.5121,3.07684 5.5878,4.22731 4.2187,4.5 -4.8656,0.96911 -22.9618,-11.40124 -26.5937,-18.18749 -0.7671,-1.43324 -1.7939,-2.625 -2.2813,-2.625 -1.0956,0 -5.7812,10.40972 -5.7812,12.84375 0,3.85112 5.3908,12.28309 11.4687,17.96874 7.2573,6.78879 15.4568,11.24851 25.5313,13.84375 11.2898,2.90834 8.8067,4.33995 -4,2.3125 -12.8566,-2.03534 -25.9755,-7.66447 -35.75,-15.34375 -3.2226,-2.53184 -6.1704,-4.625 -6.5625,-4.625 -0.3922,0 -2.3104,3.49379 -4.25,7.75 -4.1447,9.09498 -4.1097,9.23802 4.0312,18.03125 14.3865,15.53909 42.0878,27.4639 67.2813,28.9375 5.6375,0.32974 10.25,0.95052 10.25,1.375 0,1.76302 -16.0518,5.38506 -28.5,6.4375 -24.8027,2.09695 -51.4099,-9.3811 -64.0313,-27.59375 -1.5259,-2.20192 -3.1195,-3.87323 -3.5312,-3.71875 -1.1245,0.42191 -10.9375,19.45978 -10.9375,21.21875 0,0.8392 3.9676,4.81135 8.8125,8.84375 22.5231,18.746 45.995,30.73088 71.1875,36.34375 4.9614,1.10541 12.4619,1.71545 22.1562,1.78125 8.06,0.0547 14.4611,0.42037 14.2188,0.8125 -1.1494,1.8597 -19.5945,5.20376 -34.875,6.3125 -28.5914,2.07456 -69.5609,-8.08026 -94.4688,-23.40625 -2.6038,-1.60217 -5.1874,-2.6388 -5.75,-2.28125 -1.2898,0.81982 -11.267,20.6958 -11.25,22.40625 0.025,2.49169 15.912,15.44267 31.6875,25.84375 35.3176,23.28553 80.3797,36.4616 118.5313,34.65625 5.9125,-0.27978 10.75,-0.12767 10.75,0.3125 0,1.64092 -20.2963,4.53422 -42.0313,6 -46.957,3.16673 -99.5544,-6.2079 -136.8437,-24.40625 -4.0569,-1.97991 -7.7844,-3.36961 -8.2813,-3.0625 -0.4969,0.3071 -3.16,5.09027 -5.9375,10.625 l -5.0625,10.0625 5.8438,5.96875 c 7.9282,8.09271 27.7354,23.94438 40,32.03125 17.395,11.4697 28.4758,17.30249 56.8125,29.78125 5.0227,2.21189 23.7653,8.2113 32.4375,10.40625 19.3913,4.90801 45.8428,8.52325 62.5312,8.53125 22.1661,0.0109 -17.0383,5.31499 -51.25,6.9375 -49.6897,2.35655 -85.9358,-3.6567 -129.7187,-21.5625 -13.9461,-5.70352 -11.5243,-4.62583 -35.4375,-15.8125 -11.2408,-5.25845 -21.1612,-9.5625 -22.0625,-9.5625 -1.0676,0 -4.1398,4.54453 -8.8125,13.03125 -3.9454,7.16566 -7.1875,13.43343 -7.1875,13.9375 0,1.82236 11.7732,9.30834 24.5,15.5625 26.1763,12.8635 59.9006,21.80395 96,25.4375 15.8082,1.59116 65.9144,0.47772 83,-1.84375 34.1116,-4.63487 64.1228,-11.63067 96.8437,-22.53125 21.2503,-7.07927 40.6613,-14.44301 40.6563,-15.4375 0,-0.35529 -11.8144,-0.71025 -26.25,-0.78125 -52.0729,-0.25615 -97.4364,-7.99548 -138.25,-23.59375 -22.1942,-8.48222 -61.1423,-29.59229 -58.7813,-31.84375 0.4451,-0.4244 4.1358,-0.12649 8.2188,0.65625 25.2717,4.84474 62.0851,6.12824 85.5625,2.96875 28.002,-3.76841 54.7611,-12.3609 78.0625,-25.0625 4.6444,-2.53168 8.4375,-4.98389 8.4375,-5.4375 0,-0.4536 -10.9125,-1.02841 -24.25,-1.3125 -34.3792,-0.73228 -56.4801,-4.7751 -85.25,-15.5625 -15.0798,-5.65423 -37.5,-17.19714 -37.5,-19.3125 0,-0.66946 2.3018,-0.73419 6.75,-0.1875 3.7125,0.45627 15.975,0.8227 27.25,0.8125 22.5905,-0.0204 33.1369,-1.65915 49.3125,-7.5625 14.6488,-5.34615 40.2008,-20.8304 38,-23.03125 -0.4471,-0.44707 -4.1888,-0.33492 -8.3125,0.25 -10.4367,1.48037 -35.3672,0.40678 -46.5,-2 -13.1449,-2.84177 -30.6809,-9.28788 -29.2188,-10.75 0.2564,-0.25639 4.6542,-0.92759 9.7813,-1.5 11.782,-1.31544 23.0381,-4.8197 34.125,-10.625 8.3001,-4.34608 24.0023,-15.28809 24.625,-17.15625 0.167,-0.50115 -4.4081,-0.65854 -10.5,-0.375 -17.9428,0.83512 -35.4653,-3.5317 -54.9063,-13.65625 -11.7311,-6.10941 -14.405,-8.64351 -7.1875,-6.8125 2.366,0.60022 11.9313,1.12655 21.2813,1.15625 15.1479,0.0481 17.8171,-0.21647 24.5,-2.3125 8.6598,-2.71608 15,-5.71444 15,-7.125 0,-0.56357 -3.6194,-1 -8.5625,-1 -17.1785,0 -40.4889,-7.08833 -47.3438,-14.40625 -2.8431,-3.03515 -2.331,-3.11908 6.0625,-0.96875 9.1929,2.3551 25.312,1.51906 33.2813,-1.71875 8.2695,-3.35976 8.1359,-4.51393 -0.625,-5.125 -11.8173,-0.82423 -23.0617,-6.22141 -35.0938,-16.81249 -6.2192,-5.47439 -6.1314,-6.96875 0.4063,-6.96875 6.1595,0 11.2158,-2.23357 14.0312,-6.1875 2.7113,-3.80765 1.8808,-4.44039 -3.125,-2.4375 -6.5457,2.61908 -11.9669,2.10039 -19.5937,-1.875 -3.6932,-1.925 -7.0179,-3.5 -7.4063,-3.5 z"
         style="fill:#007100;fill-opacity:1"
         id="path3293-0" />
    </g>
  </g>
</svg>
