<?xml version="1.0" encoding="UTF-8" standalone="no"?>
<!-- Created with Inkscape (http://www.inkscape.org/) -->

<svg
   xmlns:dc="http://purl.org/dc/elements/1.1/"
   xmlns:cc="http://creativecommons.org/ns#"
   xmlns:rdf="http://www.w3.org/1999/02/22-rdf-syntax-ns#"
   xmlns:svg="http://www.w3.org/2000/svg"
   xmlns="http://www.w3.org/2000/svg"
   xmlns:xlink="http://www.w3.org/1999/xlink"
   version="1.1"
   width="699.28571"
   height="297.36389"
   id="svg7342">
  <defs
     id="defs7344">
    <linearGradient
       id="linearGradient7357">
      <stop
         id="stop7359"
         style="stop-color:#000041;stop-opacity:1"
         offset="0" />
      <stop
         id="stop7361"
         style="stop-color:#000041;stop-opacity:0"
         offset="1" />
    </linearGradient>
    <linearGradient
       x1="361.63461"
       y1="851.31964"
       x2="361.63461"
       y2="870.56726"
       id="linearGradient7363"
       xlink:href="#linearGradient7357"
       gradientUnits="userSpaceOnUse" />
  </defs>
  <metadata
     id="metadata7347">
    <rdf:RDF>
      <cc:Work
         rdf:about="">
        <dc:format>image/svg+xml</dc:format>
        <dc:type
           rdf:resource="http://purl.org/dc/dcmitype/StillImage" />
        <dc:title></dc:title>
      </cc:Work>
    </rdf:RDF>
  </metadata>
  <g
     transform="translate(133.92854,-575.10881)"
     id="layer1">
    <path
       d="m -86.897441,849.80954 24.469812,-7.16764 -0.242,-3 c -0.133571,-1.65 -0.708243,-12.9 -1.278043,-25 -0.569957,-12.1 -1.275842,-25.6 -1.568757,-30 -0.558485,-8.38856 1.482486,-18.32524 11.0374,-53.73823 2.038615,-7.55603 4.502457,-14.68444 5.475015,-15.84092 2.976442,-3.53907 9.353142,-21.32651 7.962742,-22.21131 -1.212985,-0.7719 -10.668271,2.0205 -15.734871,4.64696 -1.213143,0.62885 -3.511357,1.00261 -5.107143,0.83057 -1.7468,-0.1883 -2.901486,0.2824 -2.901486,1.18267 0,0.82251 -1.395742,1.77737 -3.101685,2.12191 -1.705786,0.34455 -4.004,1.83737 -5.107143,3.31739 -1.138814,1.52805 -4.977657,3.59882 -8.883284,4.79176 -3.782743,1.15544 -7.530443,2.84294 -8.3281,3.75 -0.797657,0.90705 -2.122215,1.64919 -2.9436,1.64919 -2.624443,0 -1.578186,-4.34205 2.334828,-9.6904 4.976715,-6.80191 12.353156,-10.32565 33.886127,-16.18727 3.168315,-0.86247 1.762672,-1.00445 -7.263928,-0.7337 -6.155915,0.18465 -12.166629,0.73225 -13.357143,1.2169 -1.190514,0.48464 -3.578927,0.94052 -5.307499,1.01307 -1.728571,0.0725 -8.446428,0.89789 -14.928571,1.8341 -6.48214,0.93621 -14.60501,1.69408 -18.05084,1.68416 -3.57532,-0.0103 -7.45879,0.66937 -9.04546,1.58309 -1.529,0.88062 -3.23997,1.30847 -3.80207,0.95078 -1.98974,-1.26615 4.39748,-8.22509 9.65218,-10.51641 6.4163,-2.79779 22.689076,-6.15432 29.836561,-6.15432 2.842243,0 6.047958,-0.675 7.123915,-1.5 1.657227,-1.27075 1.266414,-1.52408 -2.557657,-1.65753 -2.482543,-0.0866 -5.574486,-0.10176 -6.870915,-0.0336 -1.296428,0.0682 -5.539285,0.20191 -9.428574,0.29718 -3.88928,0.0953 -8.30893,0.57622 -9.82143,1.06876 -1.991,0.64834 -2.75,0.50217 -2.75,-0.52952 0,-0.78378 3.35893,-2.46515 7.46429,-3.73637 6.237471,-1.93144 10.628043,-2.37733 26.714284,-2.71295 15.2977,-0.31915 19.25,-0.69354 19.25,-1.82353 0,-2.61762 -8.475657,-3.67739 -31.143198,-3.89405 -21.889996,-0.20923 -28.231346,-1.09462 -24.562216,-3.42952 3.02924,-1.92764 23.268459,-6.11697 32.527159,-6.7328 9.510755,-0.63259 9.532598,-0.64143 6.027527,-2.44753 -4.504342,-2.32111 -2.9249,-3.97361 3.068842,-3.21077 3.927,0.49981 4.653315,0.27726 4.653315,-1.42576 0,-1.10991 -1.060715,-2.27704 -2.357143,-2.59362 -1.296429,-0.31658 -2.357143,-0.1908 -2.357143,0.27951 0,0.47032 -2.121429,1.05326 -4.714286,1.29542 -6.034284,0.56359 -5.962784,-0.60039 0.258972,-4.21665 6.0698,-3.52792 7.668414,-3.12796 18.032457,4.51142 4.097971,3.02056 8.334857,5.49193 9.415528,5.49193 3.443158,0 4.119815,-2.0625 1.321886,-4.02988 -1.489086,-1.04712 -2.696886,-3.15626 -2.684157,-4.68699 0.01571,-1.53072 -0.642871,-3.30767 -1.457343,-3.94876 -0.814314,-0.6411 -1.266886,-3.7911 -1.0054,-7 0.415329,-5.09968 0.901686,-5.87305 3.862414,-6.14154 4.421058,-0.40092 9.9165,4.19583 15.621572,13.06695 3.278157,5.09732 4.965714,6.63489 6.861643,6.25196 1.722914,-0.34798 3.074028,0.43583 4.292514,2.49022 0.978057,1.64892 2.861571,2.99804 4.185657,2.99804 1.323929,0 5.706486,-2.5875 9.738772,-5.75 8.3155281,-6.52166 10.12691386,-7.29678 10.12691386,-4.33334 0,2.44803 1.96522854,2.69121 4.71428574,0.58334 2.4735857,-1.89675 4.7142857,-1.92878 4.7142857,-0.0674 0,0.78793 -1.4142857,1.71826 -3.1428572,2.06738 -1.7285714,0.34913 -3.1428571,1.27946 -3.1428571,2.06739 0,1.62941 4.0297714,1.94638 5.5,0.43261 0.5341286,-0.55 2.401457,-1 4.149671,-1 1.748215,0 6.198972,-1.575 9.890572,-3.5 6.473657,-3.37569 16.602614,-4.91968 16.602614,-2.53079 0,2.42849 -6.776,8.87913 -9.867471,9.39358 -7.006215,1.16592 -0.09586,2.4694 14.846385,2.80053 15.9181,0.35275 19.1125,1.018 15.356158,3.19788 -2.692486,1.56237 -18.402215,3.89902 -20.5458,3.05594 -0.824058,-0.32412 -2.351329,-0.15145 -3.393815,0.38371 -1.042485,0.53517 -4.900814,1.28846 -8.574028,1.67399 -5.144543,0.53996 -6.678572,1.14015 -6.678572,2.61306 0,1.69647 1.212357,1.91211 10.750143,1.91211 12.5576,0 23.239386,1.82739 31.830857,5.44553 6.846871,2.88334 8.573085,6.26762 2.597571,5.09225 -1.944643,-0.3825 -9.546428,-0.89032 -16.892856,-1.12851 -7.346429,-0.23818 -15.301786,-0.64146 -17.678572,-0.89617 -3.537286,-0.37907 -4.321428,-0.0938 -4.321428,1.57243 0,1.91923 -0.628572,1.99614 -11,1.34579 -7.7647433,-0.48689 -11.0000004,-0.35765 -11.0000004,0.43945 0,0.68413 3.0116428,1.12921 7.6409144,1.12921 10.840028,0 36.660014,7.0676 41.253928,11.29226 0.531458,0.48874 2.652886,1.42514 4.714286,2.08089 2.0614,0.65575 3.749742,2.06318 3.751785,3.12762 0,1.39302 3.727586,3.24041 13.291929,6.59256 7.308243,2.56146 13.5443,5.14674 13.857643,5.74505 0.5093,0.97216 -1.289357,1.40011 -11.0462,2.62823 -1.5125,0.19038 -2.75,-0.0617 -2.75,-0.56023 0,-0.49851 -0.566972,-0.90638 -1.259972,-0.90638 -0.693,0 -1.334143,1.66279 -1.424657,3.69509 -0.09429,2.12478 -1.2287,4.19024 -2.6686,4.86024 -1.3772,0.64083 -2.503914,1.67805 -2.503914,2.30491 0,1.9928 -2.257043,1.22942 -5.5,-1.86024 -1.728571,-1.64684 -4.081157,-2.99554 -5.227985,-2.99712 -1.146986,-0.002 -4.206715,-1.35288 -6.799572,-3.00288 -2.592857,-1.65 -5.258471,-3 -5.923657,-3 -1.783257,0 -12.691643,-6.93376 -12.691643,-8.06719 0,-0.534 -1.643557,-0.70841 -3.652314,-0.38758 -2.318329,0.37027 -4.397486,0.012 -5.6925,-0.98094 -1.122,-0.86036 -3.036314,-1.56429 -4.254171,-1.56429 -1.2177,0 -2.620986,-0.675 -3.1185,-1.5 -1.257929,-2.08612 -3.711086,-1.87928 -3.711086,0.31291 0,0.9971 2.184443,3.1346 4.854457,4.75 6.052514,3.66198 12.190829,10.20423 14.750843,15.72194 1.622343,3.49625 1.574728,4.58177 -0.279086,6.38231 -2.150186,2.08825 -2.4926,2.11341 -9.142414,0.67153 -4.058529,-0.88 -7.303843,-2.29023 -7.866414,-3.41835 -0.526743,-1.05618 -1.617315,-1.92034 -2.4233,-1.92034 -0.8059861,0 -1.4655147,-1.5199 -1.4655147,-3.37756 0,-3.28565 -3.1700429,-6.27181 -5.2517143,-4.9471 -0.5687,0.3619 -1.034,-0.54201 -1.034,-2.00867 0,-2.92253 -4.1482571,-3.76899 -5.7174857,-1.16667 -1.0291286,1.70676 -5.2825143,2.05527 -5.2825143,0.43285 0,-0.58694 -2.298214,-2.50631 -5.107143,-4.26528 -2.808928,-1.75897 -7.439771,-4.94686 -10.290814,-7.08419 -3.372914,-2.52863 -5.719686,-3.54493 -6.718172,-2.90947 -1.861828,1.18472 -12.956742,39.42041 -17.0698,58.8261 -2.081985,9.82355 -1.870471,41.28388 0.295586,43.92342 0.868057,1.05789 1.756072,10.28289 1.9734,20.5 0.415957,19.55383 2.154114,26.65879 6.701986,27.39614 2.3353,0.37864 9.050643,0.28909 27.049943,-0.36072 9.186414,-0.33165 9.1945854,-0.34929 9.2231854,-20.2008 0.026714,-19.04826 2.39234289,-33.24282 8.0758857,-48.47149 1.7334429,-4.64446 3.1516572,-9.94941 3.1516572,-11.78878 0,-2.02786 1.4420997,-4.45704 3.6636287,-6.17104 2.015043,-1.5547 5.764314,-5.52673 8.331557,-8.82673 7.142771,-9.18138 16.178957,-17.69033 18.307143,-17.23892 2.719514,0.57689 6.910357,8.29386 10.296786,18.96093 1.601914,5.04593 3.644614,9.32969 4.539228,9.51947 0.894772,0.18978 3.778814,-1.02441 6.409072,-2.69821 2.884042,-1.83535 6.40907,-3.04327 8.880928,-3.04327 4.919985,0 6.625142,-2.23312 4.244271,-5.55834 -2.377257,-3.32044 -0.550314,-8.26789 3.7092,-10.04392 7.795543,-3.25047 15.798358,2.60657 12.094186,8.8515 -2.426129,4.09028 -1.314029,5.12402 8.216686,7.63783 6.433273,1.69683 10.486303,3.78841 17.217673,8.88523 5.39707,4.08645 8.80393,7.60549 8.80393,9.09385 0,2.53857 -8.11627,9.76388 -16.0226,14.26371 l -4.62079,2.62986 1.67892,9.58072 c 2.77702,15.84889 2.41607,18.41882 -3.04308,21.66405 -2.719824,1.61674 -4.352382,3.41976 -3.85031,4.25229 0.804886,1.33461 -1.327857,13.93475 -3.3418,19.74322 -1.354729,3.90771 5.59821,6.05505 15.84251,4.89279 18.29018,-2.07511 25.77866,-2.20088 32.59709,-0.54745 3.67871,0.89207 10.57791,1.80682 15.33149,2.03278 4.75357,0.22596 10.51034,0.71978 12.79284,1.09738 2.44106,0.40385 4.58228,0.24141 5.19986,-0.39447 0.5775,-0.59457 2.409,-1.08103 4.07,-1.08103 4.0722,0 5.11154,-3.15497 4.35867,-13.23017 -0.44252,-5.92054 -1.60459,-9.53053 -4.09122,-12.70766 -2.44907,-3.12946 -3.47301,-6.24844 -3.47301,-10.5792 0,-5.89275 -0.40763,-6.52661 -10.06862,-15.65697 -12.1154,-11.45008 -18.54207,-19.35631 -22.6985,-27.92408 -4.29235,-8.84845 -5.28377,-13.90192 -2.72705,-13.90192 2.50737,0 13.00357,4.76929 24.77357,11.25665 9.78874,5.39532 13.23316,5.71216 16.90008,1.55461 2.13338,-2.41876 2.101,-2.85604 -0.3388,-4.57166 -1.71128,-1.20331 -2.69782,-3.5487 -2.69782,-6.41335 0,-7.5358 7.63682,-9.93007 18.29865,-5.73687 6.83195,2.68695 8.77816,5.10607 8.77816,10.91062 0,5.64321 -2.7192,9.40596 -6.18577,8.55945 -2.07177,-0.50593 -2.31912,0.19795 -1.64167,4.67244 0.43874,2.89746 0.231,6.2186 -0.46185,7.38032 -1.41255,2.36903 2.93543,7.26311 16.81775,18.92964 17.78386,14.94558 29.5834,29.87971 26.26077,33.23729 -2.84099,2.87091 -6.69554,2.57215 -16.5,-1.27892 -5.15177,-2.02353 -10.41779,-3.42248 -11.70243,-3.10878 -1.4839,0.36234 -2.83077,-0.25826 -3.69317,-1.70164 -0.74659,-1.2496 -2.61439,-2.9285 -4.15077,-3.7309 -2.57526,-1.345 -2.6994,-1.26372 -1.59123,1.0411 0.66126,1.375 1.58023,6.4734 2.04223,11.32979 0.5984,6.2907 1.47651,8.9852 3.05328,9.37025 1.21723,0.29726 6.69523,-0.86364 12.17323,-2.57978 5.47784,-1.71614 11.06883,-3.12026 12.42435,-3.12026 1.35535,0 2.84491,-0.39188 3.31005,-0.87084 1.05255,-1.08373 8.48336,-2.11599 19.76842,-2.74613 4.75357,-0.26544 10.42925,-1.29921 12.6126,-2.29729 2.18334,-0.99807 6.4262,-2.05405 9.42857,-2.34663 3.00237,-0.29258 9.64464,-1.28751 14.76074,-2.21096 10.6183,-1.9166 27.03784,-1.67683 35.06423,0.51204 4.50639,1.22893 6.09494,1.16609 14.05674,-0.55609 17.86903,-3.86522 24.35636,-10.02681 24.92773,-23.6761 0.24546,-5.86333 -0.34524,-9.56165 -1.81484,-11.3643 -1.19822,-1.46977 -2.17863,-3.97698 -2.17863,-5.57158 0,-1.59459 -0.61993,-3.68065 -1.37767,-4.63569 -0.75774,-0.95504 -3.32137,-5.68226 -5.69722,-10.50495 -2.37568,-4.82269 -4.9379,-9.01175 -5.69375,-9.30902 -0.75586,-0.29727 -1.37422,-1.4019 -1.37422,-2.45473 0,-1.05282 -1.37264,-3.83877 -3.0503,-6.19098 -1.67765,-2.35221 -7.04,-9.90175 -11.91645,-16.77676 -9.44979,-13.32282 -13.31896,-17.16156 -13.31896,-13.21429 0,3.65728 -2.23803,2.51397 -5.09332,-2.60206 -5.07162,-9.08686 -13.76382,-15.19588 -13.76382,-9.67336 0,1.82105 -0.98843,2.84143 -3.09132,3.19138 -2.96041,0.49264 -20.48011,17.75431 -20.48011,20.17843 0,0.61594 -0.63046,1.1199 -1.40109,1.1199 -0.77063,0 -1.81516,1.04997 -2.32131,2.33326 -0.50616,1.28329 -2.78505,4.4564 -5.06409,7.05134 -4.59548,5.23236 -8.30248,5.75633 -10.65161,1.5056 -1.25762,-2.2758 0.42208,-4.44171 13.83108,-17.83473 8.39442,-8.38438 14.90767,-15.47016 14.47396,-15.74617 -0.43371,-0.27602 -6.29923,2.92621 -13.03453,7.11606 -6.73514,4.18985 -13.14924,7.39729 -14.25348,7.12766 -1.10409,-0.26964 -2.0075,0.114 -2.0075,0.85253 0,0.73853 -3.18215,3.30526 -7.07143,5.70385 -3.88929,2.39858 -7.10145,4.81771 -7.13806,5.37583 -0.0361,0.55812 -2.64204,2.06169 -5.78977,3.34124 -4.55589,1.85186 -6.4405,2.11854 -9.23859,1.30727 -2.4805,-0.71923 -3.27171,-1.61133 -2.68824,-3.03111 0.65136,-1.58529 -0.12414,-2.14529 -3.65939,-2.6408 -7.54945,-1.05831 -8.41453,-1.34842 -8.41453,-2.82159 0,-1.71939 24.84633,-16.86475 33.11881,-20.18799 6.32421,-2.54052 8.6262,-4.22054 7.10757,-5.18695 -1.14557,-0.72902 -7.74102,1.33187 -14.7334,4.60382 -2.8325,1.32538 -5.6551,2.08829 -6.27267,1.69537 -1.35992,-0.86541 10.2872,-7.8501 20.50038,-12.29388 8.3875,-3.64941 9.85522,-5.90001 3.10074,-4.75462 -2.37678,0.40304 -5.97205,0.86636 -7.98945,1.02959 -2.0174,0.16323 -4.84597,0.93885 -6.28572,1.7236 -4.23783,2.30988 -7.61891,2.68663 -10.71494,1.19394 -1.59657,-0.76973 -4.31703,-1.42814 -6.0456,-1.46312 -1.72857,-0.035 -4.5001,-0.71714 -6.15906,-1.5159 -2.92317,-1.40747 -2.92757,-1.51454 -0.14771,-3.46942 4.41367,-3.1036 17.57643,-6.66242 31.31527,-8.46672 13.93763,-1.83042 15.53781,-2.24982 14.12683,-3.70262 -0.54293,-0.55906 -4.9742,-0.87518 -9.84704,-0.7025 -4.873,0.17268 -9.78592,-0.0569 -10.9175,-0.51017 -1.13175,-0.45328 -6.64275,-0.95058 -12.24678,-1.10511 -11.53821,-0.31816 -13.76037,-1.06037 -9.33711,-3.11859 11.91724,-5.54535 42.86276,-3.67195 61.7199,3.73643 4.84817,1.90465 8.27876,1.81994 8.27876,-0.20442 0,-0.51754 -1.06685,-0.94098 -2.37082,-0.94098 -1.30381,0 -5.29933,-1.35 -8.87857,-3 -3.5794,-1.65 -7.66888,-3 -9.08788,-3 -1.41885,0 -5.59649,-1.95603 -9.28353,-4.34672 -5.8256,-3.77736 -6.7826,-5.0217 -7.30652,-9.49999 -0.33173,-2.8343 -0.22487,-5.15327 0.23729,-5.15327 0.46216,0 6.54908,3.375 13.52638,7.5 6.97746,4.125 13.62932,7.49998 14.78212,7.49998 2.7148,0 2.77074,0.18 -2.01049,-6.46605 -2.84303,-3.95175 -3.60344,-6.02772 -2.47185,-6.74781 1.08004,-0.68736 1.12545,-1.89186 0.13357,-3.55179 -0.82547,-1.38144 -1.06402,-2.7868 -0.5302,-3.12302 1.52381,-0.95983 8.34381,5.02665 9.48153,8.32265 0.56445,1.63548 2.61061,3.76665 4.54692,4.73593 1.93632,0.96928 4.40928,3.12757 5.49545,4.79621 1.08617,1.66863 2.52104,3.03388 3.18874,3.03388 0.6677,0 1.71773,-4.04998 2.33341,-8.99998 0.61553,-4.95 1.72653,-9 2.46856,-9 1.92327,0 4.60287,3.4891 4.60287,5.99327 0,3.11888 2.60449,1.56956 6.30096,-3.74816 4.3241,-6.22072 7.44401,-8.24511 12.70689,-8.24511 5.18052,0 6.07042,0.73665 7.03387,5.82261 0.5621,2.96763 0,4.25089 -2.453,5.66737 -3.77929,2.17656 -6.12889,1.29021 -2.99122,-1.12844 1.8876,-1.45513 1.8645,-1.62194 -0.16893,-1.21461 -1.29642,0.25969 -3.44378,1.82846 -4.77195,3.48615 -1.32817,1.65769 -4.86389,4.41128 -7.85715,6.11909 -4.70674,2.68544 -5.06911,3.19717 -2.68085,3.78624 1.91604,0.47264 4.66023,-0.41054 8.96484,-2.88532 3.41189,-1.96156 9.03571,-4.48596 12.49741,-5.60978 6.77852,-2.20067 18.8529,-2.73085 21.65036,-0.95067 1.24174,0.79018 2.62476,0.78349 4.99636,-0.0242 3.78447,-1.28886 10.23188,-0.51644 12.92484,1.54843 1.4575,1.11762 1.2199,1.8673 -1.11414,3.51467 -2.57903,1.82021 -4.13883,2.01653 -11.9295,1.50143 -5.22233,-0.34529 -9.35974,-0.1837 -9.91414,0.38722 -0.52345,0.5389 -2.8545,0.99852 -5.18022,1.0214 -8.15508,0.0802 -27.59271,5.90685 -29.35208,8.79863 -0.44849,0.73714 -0.41785,1.74964 0.0676,2.25 1.59783,1.64528 5.50707,0.95486 11.39741,-2.01291 10.38856,-5.23429 23.7149,-6.10618 37.46207,-2.45098 7.31453,1.94485 7.19887,4.83482 -0.16295,4.07458 -5.43023,-0.56076 -14.9985,1.04581 -14.9985,2.51831 0,0.42942 -2.50392,0.78076 -5.56428,0.78076 -8.30531,0 -25.8643,3.86541 -25.8643,5.69371 0,1.04499 0.85973,1.30379 2.75,0.82783 4.26282,-1.07335 25.77175,-4.67048 31.03572,-5.19037 7.84504,-0.77481 34.07674,-0.21078 38.38906,0.82544 2.22168,0.53384 5.92287,2.1139 8.22501,3.51122 l 4.1855,2.5406 8.83771,-2.10422 c 4.86075,-1.15731 10.93259,-2.10421 13.49308,-2.10421 5.30687,0 6.49455,-2.46066 1.58227,-3.27813 -2.70915,-0.45083 -2.84869,-0.81863 -1.17857,-3.10538 2.66907,-3.65467 10.4654,-3.0224 17.69192,1.43478 5.94299,3.66563 8.50819,3.36705 5.62839,-0.65514 -1.02866,-1.43677 -2.23253,-5.71367 -2.67504,-9.50422 -0.63156,-5.40797 -0.34273,-6.89189 1.34121,-6.89189 3.25757,0 8.44439,3.97604 12.16034,9.32187 1.83402,2.63833 4.52038,5.02807 5.9697,5.31054 1.44933,0.28246 3.84922,0.92527 5.33328,1.42845 2.10697,0.7144 3.65655,0.15055 7.07142,-2.57296 4.93382,-3.9349 7.46728,-4.34873 9.78089,-1.59766 1.39779,1.66202 2.22404,1.75151 6.84247,0.74111 2.88907,-0.63204 7.59644,-2.40409 10.46084,-3.93791 8.84778,-4.73766 15.33526,-1.31378 7.25435,3.82863 -2.22027,1.41285 -4.03669,2.77336 -4.03669,3.02336 0,0.25 4.9082,0.45455 10.90729,0.45455 15.10881,0 17.24768,3.02752 3.23557,4.57991 -20.07987,2.22463 -22.44079,4.5256 -5.73524,5.58933 10.07757,0.64169 20.66381,3.40138 20.66381,5.38681 0,0.51917 -4.95,1.0796 -11,1.2454 -6.05,0.1658 -13.68023,0.87596 -16.95587,1.57812 l -5.95587,1.27666 11.84873,3.72651 c 6.51671,2.04958 11.84872,4.16349 11.84872,4.69757 0,0.53408 -2.08638,0.28449 -4.63634,-0.55463 -5.33437,-1.75546 -7.93508,-1.93927 -7.93508,-0.56086 0,1.1816 4.49758,2.78005 9.57832,3.40412 6.89433,0.84683 28.13596,7.66895 28.13596,9.03634 0,0.7396 -2.15286,1.61871 -4.7839,1.95358 -3.608,0.4592 -5.37004,1.50166 -7.1687,4.24112 l -2.38496,3.63227 -3.53964,-2.11613 c -1.94684,-1.16386 -4.378,-2.11612 -5.40273,-2.11612 -1.02457,0 -1.86293,-0.41968 -1.86293,-0.93261 0,-0.51294 -1.56388,-1.24846 -3.47505,-1.63449 -1.91133,-0.38603 -5.50142,-1.99135 -7.97815,-3.56739 -2.47657,-1.57603 -5.54431,-2.86551 -6.81717,-2.86551 -1.27285,0 -4.46631,-0.70818 -7.09657,-1.57374 -7.17907,-2.36244 -7.25528,-0.97398 -0.21356,3.88742 6.0401,4.16996 9.12828,8.31863 10.1695,13.66167 0.7007,3.59572 -3.29937,3.61678 -9.43595,0.0497 -2.86236,-1.66378 -5.80879,-3.02505 -6.54767,-3.02505 -0.73889,0 -1.57929,-0.35614 -1.86733,-0.79142 -0.28805,-0.43528 -3.13312,-2.0431 -6.32233,-3.57293 -3.18922,-1.52983 -6.01779,-3.76119 -6.28572,-4.95858 -0.3014,-1.34695 -1.78985,-2.29512 -3.90358,-2.48667 -1.87896,-0.17028 -4.54709,-1.40778 -5.929,-2.75 -3.51686,-3.41566 -6.83634,-3.07595 -7.91104,0.8096 -1.13442,4.10226 -5.02119,21.06278 -7.96322,34.75001 -2.34724,10.91927 -1.8876,27.04665 1.04029,36.5 0.85171,2.75 1.87471,9.23462 2.27338,14.41026 0.39867,5.17564 1.51109,10.01314 2.47217,10.75 2.29602,1.76057 6.72179,1.69594 12.42686,-0.18148 2.54242,-0.83667 6.21987,-1.27306 8.1719,-0.96975 4.43127,0.68848 8.52729,-3.92607 38.12231,13.33171 29.69184,41.76663 18.76141,12.47524 40.06993,41.15926 l -143.39285,4.2e-4 c -78.86607,2.3e-4 -236.20536,0.29966 -349.642862,0.6654 l -206.249998,0.66499 c 37.286229,-7.22725 11.5291,-6.43505 47.031129,-22.66316 z m 285.736311,-4.74581 c 0.39883,-4.30718 -1.58211,-8.0089 -3.59888,-6.72546 -1.56389,0.99517 -2.81663,8.52198 -1.72088,10.33913 1.79945,2.98398 4.90412,0.87492 5.31976,-3.61367 z M 85.730271,833.35466 c 0.435914,-10.93078 0.374628,-11.15305 -3.523615,-12.77847 -7.479685,-3.11875 -8.705714,-1.63964 -8.705714,10.50239 0,10.97163 0.01571,11.00321 4.321429,12.48897 2.376785,0.81924 5.028571,1.35944 5.892857,1.20046 0.890686,-0.16387 1.763614,-5.10732 2.015043,-11.41335 z m -33.443614,7.88565 c 12.230114,-0.58217 12.562157,-0.66627 12.234042,-3.09841 -0.185428,-1.375 -1.074071,-7.65702 -1.974657,-13.96005 -1.791742,-12.54179 -1.376257,-16.40946 3.433257,-31.95383 3.335672,-10.78139 3.255529,-24.2009 -0.157614,-26.37293 -1.091514,-0.69458 -3.385643,-0.15632 -7.176871,1.68383 l -5.572443,2.70476 0,8.57077 c 0,16.23338 -7.383985,40.0421 -17.145543,55.28396 -3.587257,5.60106 -4.2966,7.65135 -2.850728,8.2395 1.058671,0.43064 2.985557,0.49449 4.281986,0.14189 1.296428,-0.35259 8.014285,-0.91037 14.928571,-1.23949 z M 422.76964,827.89623 c 3.25129,-0.59291 6.6968,-1.68019 7.65663,-2.41618 0.95983,-0.73598 4.10033,-1.33815 6.97887,-1.33815 2.87839,0 7.07285,-0.5333 9.32093,-1.1851 l 4.08729,-1.18511 -0.77974,-14.56489 c -0.42885,-8.0107 -1.23075,-17.9399 -1.78185,-22.0649 -0.5511,-4.125 -0.27343,-11.1 0.61726,-15.5 4.93429,-24.37638 6.79564,-31.61757 9.63899,-37.50001 1.7281,-3.575 3.31744,-8.075 3.53178,-10 0.33487,-3.00844 -0.0519,-3.45272 -2.75314,-3.16335 -1.72857,0.18516 -4.60272,1.19766 -6.38707,2.25 -1.7842,1.05234 -3.94947,1.91335 -4.81156,1.91335 -0.86209,0 -3.18403,1.39137 -5.15979,3.09194 -1.97575,1.70056 -6.02878,3.73978 -9.00664,4.5316 -2.97801,0.79181 -5.81303,2.10044 -6.30001,2.90806 -1.30775,2.16866 -3.69207,1.7829 -3.69207,-0.59734 0,-3.37956 2.87885,-6.1352 12.29642,-11.77001 l 8.91786,-5.33575 -5.5,0.70355 c -3.025,0.38695 -6.91428,0.76603 -8.64286,0.8424 -1.72857,0.0764 -3.9017,0.45071 -4.82915,0.83187 -0.92746,0.38116 -6.01575,1.13671 -11.30722,1.67901 -5.29163,0.5423 -10.89707,1.40156 -12.45655,1.90948 -4.12878,1.34459 -13.04993,2.28551 -13.04993,1.37636 0,-1.32844 9.93865,-6.85878 15.58244,-8.6708 2.9524,-0.94794 8.20223,-2.2457 11.66629,-2.88392 3.4639,-0.63821 6.61885,-1.7727 7.01077,-2.52109 0.56587,-1.0802 -0.78635,-1.21765 -6.55915,-0.66676 -4.94324,0.47174 -7.27178,0.33778 -7.27178,-0.41835 0,-1.95544 11.35263,-4.21476 23.93647,-4.76363 6.71346,-0.29282 12.20639,-0.92924 12.20639,-1.41426 0,-2.22011 -9.14902,-3.02308 -25.92858,-2.27564 -23.9404,1.06641 -29.55637,0.84271 -37.91511,-1.5102 -9.28541,-2.61381 -10.56173,-2.57251 -9.42669,0.30502 0.51009,1.29335 0.49375,2.62752 -0.0361,2.96482 -1.53214,0.975 -6.83634,-1.23745 -6.83634,-2.85154 0,-1.82883 -3.02956,-1.83477 -6.80617,-0.0134 -2.19387,1.05806 -3.98672,1.14184 -7.54459,0.35258 -5.12144,-1.13615 -7.67423,-0.41994 -4.86797,1.36582 1.14321,0.72745 1.27616,1.74276 0.36944,2.82079 -1.17354,1.39541 0.0503,2.07111 7.13539,3.93988 4.7036,1.24059 10.6777,3.51928 13.27574,5.06375 3.96959,2.35974 4.72387,3.56722 4.72387,7.56192 0,4.59956 -0.0958,4.69824 -2.97235,3.04197 -1.75686,-1.01175 -2.64786,-2.50151 -2.17879,-3.64284 0.50631,-1.23237 -0.18119,-2.16905 -1.90049,-2.5889 -2.74968,-0.67145 -5.98195,1.34862 -4.53765,2.83582 1.87188,1.92737 -1.48186,0.48689 -7.45549,-3.20225 -6.88506,-4.25203 -13.30544,-5.24105 -15.06638,-2.32088 -0.71108,1.17921 0.59022,2.43049 4.37077,4.20284 9.83305,4.6098 23.60238,14.11032 26.65755,18.39307 4.86578,6.82111 3.57438,13.72498 -2.56755,13.72498 -1.03353,0 -4.18943,-2.29122 -7.01329,-5.09159 -2.82386,-2.80039 -6.1303,-5.72544 -7.34768,-6.50013 -1.21739,-0.77469 -1.98613,-2.64598 -1.70815,-4.15841 0.40245,-2.1904 -0.13357,-2.74988 -2.63764,-2.74988 -1.72857,0 -4.02679,-0.36406 -5.10714,-0.80902 -1.08036,-0.44496 -1.96429,-0.6279 -1.96429,-0.40655 0,1.83215 7.97532,14.20106 17.16723,26.62466 14.05533,18.99722 19.28001,28.13444 24.41277,42.69465 2.25437,6.39532 5.03627,12.81324 6.18184,14.26206 1.14558,1.44881 2.52702,3.81548 3.06979,5.25926 0.54277,1.44378 3.64744,4.49418 6.89904,6.77867 5.52813,3.88373 6.32076,4.11383 12.1979,3.54113 3.45715,-0.33688 8.94599,-1.09761 12.19727,-1.69052 z M 106.04711,781.34154 c 1.04689,-0.42335 3.00772,-2.45174 4.35742,-4.50752 2.72973,-4.15743 1.99524,-5.72351 -4.49696,-9.58769 l -4.02474,-2.39557 -1.6885,2.82605 c -2.29743,3.84543 -3.733244,11.00916 -2.587202,12.90953 0.995815,1.65148 5.276542,2.03452 8.439982,0.7552 z m 93.16812,-16.19964 c 0,-2.95131 -2.01504,-3.97029 -3.93737,-1.99105 -1.26469,1.30227 0.5621,4.99105 2.47185,4.99105 0.80599,0 1.46552,-1.35 1.46552,-3 z m 143.16311,-62.29621 c -2.01692,-1.28349 -4.0623,-0.2915 -2.56912,1.24598 0.57844,0.59556 1.77162,0.79971 2.65147,0.45366 1.07328,-0.42212 1.04625,-0.98146 -0.0817,-1.69964 z m -66.94882,-1.7038 c 0.53412,-0.55 0.22235,-1 -0.693,-1 -0.91536,0 -1.66415,0.45 -1.66415,1 0,0.55 0.31177,1 0.693,1 0.38107,0 1.13002,-0.45 1.66415,-1 z m -216.857149,-7 c -0.534128,-0.55 -1.636643,-1 -2.449857,-1 -0.813371,0 -1.478714,0.45 -1.478714,1 0,0.55 1.102357,1 2.449857,1 1.3475,0 2.012843,-0.45 1.478714,-1 z m -9.574243,-3.10238 c -4.125157,-2.90077 -10.9483,-5.00378 -13.897714,-4.28355 -1.351114,0.32995 -2.4497,0.88926 -2.441214,1.24292 0.02829,1.20734 11.761043,5.05437 15.5496,5.09874 3.741414,0.0438 3.749271,0.0233 0.789328,-2.05811 z m 389.074242,-4.39762 c 0,-0.825 -1.01907,-1.5 -2.26443,-1.5 -2.62538,0 -4.39748,1.42728 -2.93102,2.36052 1.87817,1.19516 5.19545,0.64571 5.19545,-0.86052 z m -406.999999,0.059 c 0,-1.05548 -3.015728,-1.49891 -3.9127,-0.57533 -0.542928,0.55897 0.114715,1.01631 1.462843,1.01631 1.347343,2e-5 2.449857,-0.19842 2.449857,-0.44096 z M 331.15803,658.68571 c 2.58861,-1.9848 0.54969,-4.04879 -2.43996,-2.46992 -2.4475,1.29265 -3.00975,3.92612 -0.8382,3.92612 0.75853,0 2.23363,-0.65529 3.27816,-1.4562 z m -32.9428,67.5152 c 0,-2.23246 0.70714,-4.05902 1.57143,-4.05902 0.86428,0 1.57143,1.54844 1.57143,3.44098 0,1.89254 -0.70715,3.7191 -1.57143,4.05902 -0.94914,0.37325 -1.57143,-0.98962 -1.57143,-3.44098 z M -0.56912871,711.74399 c -1.35268569,-1.8894 -1.41554289,-2.96578 -0.2178,-3.72806 1.1979,-0.76228 2.00011431,-0.15636 2.77844281,2.09863 1.4105143,4.08696 -0.1084285,5.0538 -2.56064281,1.62943 z M 28.715228,677.14189 c -0.534128,-0.55 0.173015,-1 1.571429,-1 1.398414,0 2.105557,0.45 1.571429,1 -0.534129,0.55 -1.241272,1 -1.571429,1 -0.330157,0 -1.0373,-0.45 -1.571429,-1 z M 2.0009427,637.14191 c 0.5341286,-0.55 1.6782857,-1 2.5425714,-1 0.8642858,0 1.1344143,0.45 0.6002858,1 -0.5341286,0.55 -1.6784429,1 -2.5427286,1 -0.8642857,0 -1.1342572,-0.45 -0.6001286,-1 z M -41.923472,592.29367 c -1.553514,-3.11485 -8.098042,-4.40729 -13.430842,-2.65239 -2.508,0.82535 -5.037215,1.50063 -5.620372,1.50063 -1.748371,0 0.797657,-6.34005 2.873986,-7.15667 1.364628,-0.53675 0.446128,-1.72541 -3.166586,-4.09732 -2.798871,-1.83767 -5.088914,-3.6573 -5.088914,-4.04362 0,-1.52958 4.726386,-0.56677 9.336957,1.90202 3.835229,2.05363 6.885057,2.67412 14.421629,2.93406 5.2569,0.18131 9.905971,0.55115 10.331357,0.82186 0.425385,0.27071 -1.413657,1.21194 -4.086815,2.09161 -5.837071,1.92088 -6.1644,3.28205 -1.084442,4.51113 5.504714,1.33182 6.170528,2.6927 2.186485,4.46851 -4.5265,2.0176 -5.547928,1.97477 -6.672443,-0.27982 z"
       id="path3131"
       style="fill:url(#linearGradient7363);fill-opacity:1" />
  </g>
</svg>
