<?xml version="1.0" encoding="UTF-8" standalone="no"?>
<!-- Created with Inkscape (http://www.inkscape.org/) -->

<svg
   xmlns:dc="http://purl.org/dc/elements/1.1/"
   xmlns:cc="http://creativecommons.org/ns#"
   xmlns:rdf="http://www.w3.org/1999/02/22-rdf-syntax-ns#"
   xmlns:svg="http://www.w3.org/2000/svg"
   xmlns="http://www.w3.org/2000/svg"
   version="1.1"
   width="208.96138"
   height="217.12799"
   id="svg7297">
  <defs
     id="defs7299" />
  <metadata
     id="metadata7302">
    <rdf:RDF>
      <cc:Work
         rdf:about="">
        <dc:format>image/svg+xml</dc:format>
        <dc:type
           rdf:resource="http://purl.org/dc/dcmitype/StillImage" />
        <dc:title></dc:title>
      </cc:Work>
    </rdf:RDF>
  </metadata>
  <g
     transform="translate(1424.4807,-698.0839)"
     id="layer1">
    <path
       d="m -1307.4422,698.087 c -1.4225,0.0752 -5.6787,2.63054 -13.4375,8.0625 -7.06,4.94278 -13.1828,8.78512 -13.5938,8.53124 -0.4106,-0.25389 -1.0513,-3.84742 -1.4374,-7.96874 -0.3863,-4.12133 -1.1084,-7.5 -1.5938,-7.5 -0.4854,0 -0.875,4.08751 -0.875,9.06249 0,9.99892 0.292,9.42138 -8.9062,16.78125 -12.4064,9.92647 -23.0121,31.87387 -29.5,61.09375 -2.5058,11.28513 -2.5957,11.50465 -7.9688,17.00001 -6.1489,6.28877 -12.9311,16.46792 -18.75,28.09375 -6.9025,13.79069 -8.0516,18.10048 -8.625,32.71875 -0.589,15.01699 -0.8686,15.40232 -7.125,9.75 -2.1308,-1.925 -4.1542,-3.5 -4.5,-3.5 -2.807,0 2.244,5.16365 20.0938,20.59375 11.3901,9.8462 22.3025,19.35238 24.25,21.125 l 3.5312,3.21875 60.5,0.0312 60.5,0.0312 11.9688,-12.75 c 8.1219,-8.63696 11.481,-12.82428 10.4062,-13.03125 -0.8717,-0.16788 -6.7338,0.86381 -13,2.28125 -21.265,4.81016 -47.2859,7.65222 -71.8438,7.875 -12.3967,0.11246 -13.5047,-0.013 -13.8437,-1.71875 -0.2029,-1.02092 0.029,-2.27904 0.5313,-2.78125 0.8046,-0.80488 66.2213,-13.79223 100.2812,-19.90625 12.1466,-2.18041 17.2033,-4.17957 13.8438,-5.46875 -0.8206,-0.31484 -4.1324,0.12412 -7.375,0.96875 -9.0082,2.3463 -11.5465,2.02461 -18.125,-2.375 -16.9637,-11.3447 -47.7335,-40.35723 -56,-52.78125 -10.6375,-15.98705 -19.0281,-38.21865 -21.4376,-56.81251 -2.5206,-19.45382 3.1397,-50.68215 10.2813,-56.74999 2.2316,-1.8958 2.9042,-3.06455 2.1875,-3.78125 -0.09,-0.0896 -0.2343,-0.1045 -0.4375,-0.0937 z m -72.8437,106.125 c 0.4915,0 0.9062,4.49692 0.9062,9.96875 0,17.55419 3.4819,37.50756 9.5,54.53125 0.9721,2.75 2.1497,5.675 2.625,6.5 4.2091,7.3054 11.646,22.88533 11.1562,23.375 -1.8562,1.85642 -33.4798,-0.66585 -37.5624,-3 -3.491,-1.9958 -15.7188,-14.37174 -15.7188,-15.90625 0,-2.64337 6.198,-8.14065 10.5312,-9.34375 5.9456,-1.65061 13.5662,-1.3435 20.5938,0.84375 3.4629,1.07777 6.4586,1.76013 6.6875,1.53125 0.2289,-0.22888 -1.3072,-2.38882 -3.4375,-4.8125 -2.1302,-2.42369 -5.89,-7.92388 -8.3438,-12.21875 -4.2497,-7.43866 -4.4843,-8.25894 -4.875,-17.1875 -0.2255,-5.15974 0.1431,-12.12838 0.8126,-15.53125 1.4036,-7.13515 5.8114,-18.75 7.125,-18.75 z m 101.1874,62.09375 c 10.0478,-0.0909 20.0649,1.53768 30.1876,4.90625 6.8542,2.28096 8.0018,3.43643 4.2812,4.34375 -2.9115,0.71 -61.501,12.03166 -73.25,14.15625 -4.95,0.89512 -9.7848,1.84569 -10.75,2.125 -1.7511,0.50672 -2.1102,0.0215 -3.125,-4.53125 -0.8442,-3.78725 0.9355,-5.84566 8.1562,-9.46875 15.0929,-7.57291 29.8151,-11.3984 44.5,-11.53125 z m -56.6874,20.03125 c 0.9511,-0.0476 1.4062,0.92666 1.4062,2.90625 0,2.32674 -0.5893,3.24981 -2.5625,4 -5.9957,2.27956 -7.4461,0.61055 -3.25,-3.71875 2.0164,-2.08038 3.4549,-3.13995 4.4063,-3.1875 z m -0.375,9.875 c 1.7236,-0.004 1.845,0.4393 1.625,1.59375 -0.3022,1.58467 -1.4083,1.97274 -6.5313,2.21875 -3.3841,0.1625 -6.4181,-0.1505 -6.75,-0.6875 -0.9135,-1.47813 0.6524,-2.07207 7.4375,-2.78125 1.4299,-0.14945 2.5346,-0.26483 3.375,-0.3125 0.3151,-0.0179 0.5975,-0.0307 0.8438,-0.0312 z"
       id="path3390-8"
       style="fill:#ffae3b;fill-opacity:1" />
  </g>
</svg>
